HIERARCHY
ROOT Hips
{
	OFFSET 0.000000 1.471914 24.280096
	CHANNELS 6 Xposition Yposition Zposition Xrotation Yrotation Zrotation
	JOINT Spine
	{
		OFFSET 0.000000 0.900110 1.860670
		CHANNELS 6 Xposition Yposition Zposition Xrotation Yrotation Zrotation
		JOINT Spine1
		{
			OFFSET 0.000000 0.400320 2.270309
			CHANNELS 6 Xposition Yposition Zposition Xrotation Yrotation Zrotation
			JOINT Spine2
			{
				OFFSET 0.000000 0.200920 2.296560
				CHANNELS 6 Xposition Yposition Zposition Xrotation Yrotation Zrotation
				JOINT Spine3
				{
					OFFSET 0.000000 0.000000 2.305330
					CHANNELS 6 Xposition Yposition Zposition Xrotation Yrotation Zrotation
					JOINT Neck
					{
						OFFSET 0.000000 -0.864490 6.051487
						CHANNELS 6 Xposition Yposition Zposition Xrotation Yrotation Zrotation
						JOINT Head
						{
							OFFSET 0.000000 -0.550429 3.121674
							CHANNELS 6 Xposition Yposition Zposition Xrotation Yrotation Zrotation
							End Site
							{
								OFFSET 0.000000 0.000000 3.731750
							}
						}
					}
					JOINT RightShoulder
					{
						OFFSET -0.788280 -1.313800 4.256718
						CHANNELS 6 Xposition Yposition Zposition Xrotation Yrotation Zrotation
						JOINT RightArm
						{
							OFFSET -3.915130 0.000000 0.000000
							CHANNELS 6 Xposition Yposition Zposition Xrotation Yrotation Zrotation
							JOINT RightForeArm
							{
								OFFSET -6.914910 0.000000 0.000000
								CHANNELS 6 Xposition Yposition Zposition Xrotation Yrotation Zrotation
								JOINT RightHand
								{
									OFFSET -6.096219 0.000000 0.000000
									CHANNELS 6 Xposition Yposition Zposition Xrotation Yrotation Zrotation
									JOINT RightHandEnd
									{
										OFFSET -1.749950 0.000000 0.000000
										CHANNELS 6 Xposition Yposition Zposition Xrotation Yrotation Zrotation
										End Site
										{
											OFFSET -1.749950 0.000000 0.000000
										}
									}
									JOINT RightHandThumb1
									{
										OFFSET -0.699980 -1.166630 -0.466648
										CHANNELS 6 Xposition Yposition Zposition Xrotation Yrotation Zrotation
										End Site
										{
											OFFSET -1.690319 -0.452920 0.000000
										}
									}
								}
							}
						}
					}
					JOINT LeftShoulder
					{
						OFFSET 0.788280 -1.313800 4.256718
						CHANNELS 6 Xposition Yposition Zposition Xrotation Yrotation Zrotation
						JOINT LeftArm
						{
							OFFSET 3.915130 0.000000 0.000000
							CHANNELS 6 Xposition Yposition Zposition Xrotation Yrotation Zrotation
							JOINT LeftForeArm
							{
								OFFSET 6.914910 0.000000 0.000000
								CHANNELS 6 Xposition Yposition Zposition Xrotation Yrotation Zrotation
								JOINT LeftHand
								{
									OFFSET 6.096219 0.000000 0.000000
									CHANNELS 6 Xposition Yposition Zposition Xrotation Yrotation Zrotation
									JOINT LeftHandEnd
									{
										OFFSET 1.749950 0.000000 0.000000
										CHANNELS 6 Xposition Yposition Zposition Xrotation Yrotation Zrotation
										End Site
										{
											OFFSET 1.749950 0.000000 0.000000
										}
									}
									JOINT LeftHandThumb1
									{
										OFFSET 0.699980 -1.166630 -0.466648
										CHANNELS 6 Xposition Yposition Zposition Xrotation Yrotation Zrotation
										End Site
										{
											OFFSET 1.690319 -0.452920 0.000000
										}
									}
								}
							}
						}
					}
				}
			}
		}
	}
	JOINT RightUpLeg
	{
		OFFSET -2.338570 -0.252550 -0.551512
		CHANNELS 6 Xposition Yposition Zposition Xrotation Yrotation Zrotation
		JOINT RightLeg
		{
			OFFSET 0.000000 0.000000 -10.744959
			CHANNELS 6 Xposition Yposition Zposition Xrotation Yrotation Zrotation
			JOINT RightFoot
			{
				OFFSET 0.000000 -0.000001 -10.930849
				CHANNELS 6 Xposition Yposition Zposition Xrotation Yrotation Zrotation
				JOINT RightToeBase
				{
					OFFSET 0.000000 -4.087269 -1.487650
					CHANNELS 6 Xposition Yposition Zposition Xrotation Yrotation Zrotation
					End Site
					{
						OFFSET 0.000000 -1.891870 0.000000
					}
				}
			}
		}
	}
	JOINT LeftUpLeg
	{
		OFFSET 2.338570 -0.252550 -0.551512
		CHANNELS 6 Xposition Yposition Zposition Xrotation Yrotation Zrotation
		JOINT LeftLeg
		{
			OFFSET 0.000000 0.000000 -10.744959
			CHANNELS 6 Xposition Yposition Zposition Xrotation Yrotation Zrotation
			JOINT LeftFoot
			{
				OFFSET 0.000000 -0.000001 -10.930849
				CHANNELS 6 Xposition Yposition Zposition Xrotation Yrotation Zrotation
				JOINT LeftToeBase
				{
					OFFSET 0.000000 -4.087269 -1.487650
					CHANNELS 6 Xposition Yposition Zposition Xrotation Yrotation Zrotation
					End Site
					{
						OFFSET 0.000000 -1.891870 0.000000
					}
				}
			}
		}
	}
}
MOTION
Frames: 5
Frame Time: 0.041667
0.000222 26.530115 40.545052 -2.150377 -4.741278 56.870231 -0.000002 0.900099 1.860691 33.374606 9.599132 -0.630455 -0.000014 0.400320 2.270325 -0.000006 0.000001 -0.000001 0.000016 0.200934 2.296568 0.000003 -0.000000 -0.000005 0.000008 -0.000011 2.305326 -0.000017 0.000003 -5.354741 -0.000007 -0.864448 6.051500 2.365675 -13.769825 163.225306 0.000000 -0.550417 3.121693 0.000000 0.000000 -0.000001 -0.788280 -1.313755 4.256766 -138.953164 56.347483 -28.677324 -3.915127 -0.000008 0.000000 -0.000001 0.000001 -0.000003 -6.914889 0.000004 0.000001 0.000015 -0.000007 -42.610248 -6.096217 0.000008 0.000010 -0.000080 -0.000092 0.000012 -1.749946 0.000005 -0.000008 -0.000000 0.000001 0.000000 -0.699989 -1.166635 -0.466628 -0.000003 0.000000 -0.000005 0.788266 -1.313799 4.256741 -135.660234 -43.042834 45.175424 3.915170 -0.000014 0.000011 -0.000000 -0.000000 0.000004 6.914903 -0.000001 -0.000012 0.000015 -0.000010 28.739899 6.096227 0.000009 -0.000005 -0.000062 0.000079 -0.000038 1.749930 0.000018 -0.000003 0.000000 -0.000003 -0.000001 0.699981 -1.166619 -0.466669 0.000002 -0.000001 -0.000008 -2.338580 -0.252554 -0.551496 3.768180 4.513950 -0.078331 0.000003 -0.000004 -10.744968 7.422829 0.356842 0.439482 0.000006 0.000015 -10.930868 -0.000010 -0.000002 0.000002 0.000008 -4.087269 -1.487648 0.000003 0.000001 -0.000000 2.338567 -0.252556 -0.551441 10.591310 -2.825437 -0.206593 -0.000008 -0.000014 -10.744938 0.958913 1.645080 -0.066157 -0.000001 0.000009 -10.930855 0.000000 -0.000002 -0.000001 -0.000000 -4.087247 -1.487651 0.000002 0.000001 -0.000002 
0.000210 26.530113 40.545021 -2.520485 -6.240748 56.608461 0.000001 0.900100 1.860697 33.631913 9.991373 -0.754878 -0.000009 0.400318 2.270323 -0.000005 0.000000 0.000001 0.000011 0.200941 2.296574 0.000000 -0.000000 -0.000002 0.000011 -0.000013 2.305321 -0.000017 0.000003 -4.695917 -0.000007 -0.864455 6.051499 2.734845 -13.720522 164.414743 -0.000001 -0.550425 3.121700 0.000002 -0.000001 0.000007 -0.788282 -1.313762 4.256764 -138.613976 57.124222 -30.624202 -3.915122 -0.000008 0.000008 0.000000 0.000001 -0.000001 -6.914878 0.000002 -0.000003 0.000017 -0.000007 -40.314123 -6.096214 0.000007 0.000013 -0.000078 -0.000089 0.000012 -1.749950 0.000006 -0.000005 -0.000000 0.000001 0.000003 -0.699992 -1.166635 -0.466624 -0.000005 0.000002 -0.000004 0.788265 -1.313804 4.256736 -136.371721 -42.865533 44.991662 3.915160 -0.000011 0.000008 0.000000 0.000001 -0.000002 6.914902 0.000004 -0.000016 0.000017 -0.000011 28.045453 6.096232 0.000003 -0.000005 -0.000058 0.000080 -0.000034 1.749934 0.000022 -0.000004 -0.000001 -0.000002 0.000000 0.699983 -1.166619 -0.466665 0.000002 -0.000002 -0.000007 -2.338577 -0.252550 -0.551495 5.371283 4.856641 -0.129797 0.000007 -0.000003 -10.744970 7.572143 0.651650 0.465874 0.000011 0.000017 -10.930863 -0.000010 -0.000003 0.000000 0.000006 -4.087266 -1.487646 0.000000 -0.000001 -0.000000 2.338573 -0.252551 -0.551435 12.320468 -2.243119 -0.285947 -0.000004 -0.000017 -10.744945 1.059983 1.673290 -0.066053 -0.000002 0.000007 -10.930855 0.000000 -0.000002 -0.000003 -0.000000 -4.087245 -1.487652 -0.000001 -0.000001 0.000003 
0.000186 26.530115 40.544998 -2.904640 -7.875059 56.427645 0.000003 0.900102 1.860686 34.170050 10.179399 -0.988198 -0.000012 0.400317 2.270317 -0.000003 0.000000 0.000001 0.000014 0.200939 2.296571 0.000002 -0.000002 -0.000001 0.000013 -0.000014 2.305326 -0.000018 0.000001 -4.204615 -0.000007 -0.864446 6.051509 3.450842 -13.209378 163.721752 -0.000001 -0.550425 3.121689 0.000002 0.000000 -0.000001 -0.788283 -1.313754 4.256764 -135.262375 56.788959 -35.886719 -3.915118 -0.000005 0.000004 -0.000002 -0.000001 -0.000006 -6.914887 0.000006 -0.000002 0.000018 -0.000005 -37.090751 -6.096216 0.000008 0.000003 -0.000079 -0.000091 0.000009 -1.749945 0.000005 -0.000008 -0.000002 -0.000004 0.000002 -0.699993 -1.166635 -0.466624 -0.000005 -0.000005 -0.000007 0.788266 -1.313798 4.256740 -136.249734 -42.320580 45.020038 3.915167 -0.000017 0.000008 0.000001 -0.000001 0.000002 6.914909 -0.000001 -0.000020 0.000015 -0.000011 27.613009 6.096231 0.000006 -0.000004 -0.000062 0.000079 -0.000033 1.749933 0.000021 0.000004 -0.000001 -0.000000 -0.000003 0.699983 -1.166618 -0.466665 0.000002 0.000002 -0.000009 -2.338575 -0.252551 -0.551503 7.013055 5.323310 -0.215795 0.000004 -0.000002 -10.744970 8.112818 0.647839 0.510418 0.000007 0.000019 -10.930863 -0.000010 -0.000002 -0.000002 0.000006 -4.087266 -1.487646 0.000002 -0.000001 0.000001 2.338573 -0.252553 -0.551447 14.076253 -1.542504 -0.422097 -0.000005 -0.000014 -10.744937 1.203881 1.709043 -0.068106 0.000002 0.000008 -10.930856 -0.000002 -0.000001 0.000003 -0.000003 -4.087241 -1.487648 0.000000 0.000001 0.000003 
0.000159 26.530127 40.544983 -3.362384 -9.279938 56.587042 0.000001 0.900100 1.860688 34.551608 9.764995 -1.152547 -0.000012 0.400320 2.270315 -0.000001 0.000000 -0.000002 0.000015 0.200941 2.296564 0.000001 -0.000001 -0.000001 0.000010 -0.000015 2.305322 -0.000020 0.000002 -3.577176 -0.000007 -0.864446 6.051503 3.593167 -12.368994 164.477908 -0.000001 -0.550422 3.121696 0.000001 0.000001 0.000001 -0.788281 -1.313753 4.256763 -131.624138 56.947416 -40.888716 -3.915118 -0.000005 0.000004 -0.000001 -0.000002 0.000000 -6.914885 0.000002 0.000005 0.000018 -0.000003 -33.799908 -6.096211 0.000006 0.000010 -0.000080 -0.000096 0.000011 -1.749949 0.000006 -0.000012 0.000001 -0.000001 0.000001 -0.699994 -1.166634 -0.466624 -0.000003 -0.000002 -0.000006 0.788266 -1.313798 4.256741 -136.085577 -41.955950 45.296729 3.915174 -0.000008 0.000008 0.000001 0.000000 0.000002 6.914910 -0.000004 -0.000016 0.000016 -0.000012 27.389477 6.096232 0.000007 -0.000001 -0.000064 0.000080 -0.000035 1.749934 0.000021 -0.000003 -0.000002 -0.000002 -0.000002 0.699983 -1.166620 -0.466671 0.000004 -0.000002 -0.000008 -2.338575 -0.252552 -0.551502 8.531203 5.486992 -0.301471 0.000006 -0.000004 -10.744967 9.057889 0.667582 0.553549 0.000010 0.000017 -10.930858 -0.000010 -0.000002 -0.000003 0.000004 -4.087265 -1.487647 0.000002 -0.000001 -0.000002 2.338571 -0.252554 -0.551449 15.596165 -1.190520 -0.540703 -0.000008 -0.000015 -10.744943 1.397336 1.808917 -0.076566 0.000001 0.000007 -10.930857 -0.000002 -0.000002 -0.000002 -0.000003 -4.087244 -1.487649 0.000001 0.000001 0.000006 
0.000127 26.530132 40.544975 -3.910155 -10.600030 56.701587 -0.000001 0.900098 1.860680 34.581231 9.155052 -1.420956 -0.000009 0.400319 2.270317 -0.000003 0.000001 0.000001 0.000014 0.200940 2.296570 0.000000 -0.000000 -0.000002 0.000013 -0.000017 2.305325 -0.000019 0.000002 -2.888500 -0.000007 -0.864450 6.051501 3.976215 -11.493684 165.975550 -0.000002 -0.550426 3.121696 0.000003 -0.000000 0.000002 -0.788278 -1.313760 4.256758 -129.404450 56.445725 -44.468274 -3.915127 -0.000004 0.000008 -0.000001 0.000001 -0.000006 -6.914876 -0.000002 0.000002 0.000018 -0.000001 -30.723192 -6.096211 0.000007 0.000006 -0.000076 -0.000096 0.000014 -1.749956 0.000005 -0.000010 -0.000000 0.000000 0.000001 -0.700000 -1.166635 -0.466629 -0.000003 -0.000002 -0.000006 0.788263 -1.313799 4.256741 -137.167001 -43.218384 44.444225 3.915165 -0.000009 0.000004 0.000001 0.000001 -0.000002 6.914906 -0.000000 -0.000011 0.000018 -0.000013 27.103236 6.096233 0.000008 -0.000005 -0.000062 0.000079 -0.000032 1.749927 0.000020 0.000004 -0.000002 -0.000001 -0.000001 0.699974 -1.166621 -0.466657 0.000000 -0.000000 -0.000011 -2.338576 -0.252551 -0.551505 9.986230 5.380285 -0.433273 0.000004 -0.000003 -10.744968 10.081537 0.670229 0.516327 0.000007 0.000017 -10.930862 -0.000012 -0.000004 -0.000000 0.000006 -4.087263 -1.487647 -0.000003 0.000000 0.000000 2.338570 -0.252554 -0.551455 17.163424 -1.167717 -0.734079 -0.000006 -0.000015 -10.744937 1.917064 1.827284 -0.118857 -0.000001 0.000008 -10.930854 -0.000003 -0.000004 -0.000004 0.000000 -4.087245 -1.487648 0.000001 -0.000000 -0.000001 
